<?xml version="1.0" standalone="no"?>
<!DOCTYPE svg PUBLIC "-//W3C//DTD SVG 20010904//EN"
 "http://www.w3.org/TR/2001/REC-SVG-20010904/DTD/svg10.dtd">
<svg version="1.0" xmlns="http://www.w3.org/2000/svg"
 width="1280.000000pt" height="1080.000000pt" viewBox="0 0 1280.000000 1080.000000"
 preserveAspectRatio="xMidYMid meet">
<metadata>
Created by potrace 1.15, written by Peter Selinger 2001-2017
</metadata>
<g transform="translate(0.000000,806.000000) scale(0.100000,-0.100000)"
fill="#007EA7" stroke="none">
<path d="M0 4030 l0 -4030 928 0 928 0 639 1362 c351 750 941 2009 1310 2798
370 789 930 1984 1245 2655 314 671 574 1226 577 1233 4 9 -562 12 -2811 12
l-2816 0 0 -4030z"/>
<path d="M10682 6203 c-2485 -5303 -2902 -6194 -2902 -6198 0 -3 1130 -5 2510
-5 l2510 0 0 4030 0 4030 -624 0 -623 0 -871 -1857z"/>
</g>
</svg>
