<?xml version="1.0" standalone="no"?>
<!DOCTYPE svg PUBLIC "-//W3C//DTD SVG 20010904//EN"
 "http://www.w3.org/TR/2001/REC-SVG-20010904/DTD/svg10.dtd">
<svg version="1.0" xmlns="http://www.w3.org/2000/svg"
 width="1280.000000pt" height="640.000000pt" viewBox="0 0 1280.000000 640.000000"
 preserveAspectRatio="xMidYMid meet">
<metadata>
Created by potrace 1.15, written by Peter Selinger 2001-2017
</metadata>
<g transform="translate(0.000000,640.000000) scale(0.100000,-0.100000)"
fill="#000000" stroke="none">
<path d="M671 5175 c-110 -24 -226 -89 -312 -176 -63 -62 -85 -93 -122 -170
-25 -52 -50 -115 -56 -141 -16 -66 -16 -2930 0 -2996 6 -26 31 -89 56 -141 83
-173 232 -292 428 -341 80 -20 114 -20 5740 -18 l5660 3 65 23 c170 61 314
183 381 322 54 111 63 133 60 154 -2 12 1 16 9 11 9 -5 10 -1 5 15 -5 15 -2
25 6 31 12 7 14 245 14 1441 0 1326 -1 1438 -17 1500 -38 147 -122 281 -224
360 -67 51 -153 100 -165 92 -4 -2 -10 0 -14 5 -3 6 -13 7 -22 4 -12 -5 -14
-3 -8 7 5 7 4 11 -1 8 -5 -3 -38 0 -74 8 -98 21 -11314 19 -11409 -1z"/>
</g>
</svg>
