<?xml version="1.0" standalone="no"?>
<!DOCTYPE svg PUBLIC "-//W3C//DTD SVG 20010904//EN"
 "http://www.w3.org/TR/2001/REC-SVG-20010904/DTD/svg10.dtd">
<svg version="1.0" xmlns="http://www.w3.org/2000/svg"
 width="1280.000000pt" height="688.000000pt" viewBox="0 0 1280.000000 688.000000"
 preserveAspectRatio="xMidYMid meet">
<metadata>
Created by potrace 1.15, written by Peter Selinger 2001-2017
</metadata>
<g transform="translate(0.000000,688.000000) scale(0.100000,-0.100000)"
fill="#FFFFFF" stroke="none">
<path d="M7895 6873 c-85 -6 -275 -33 -380 -55 -393 -80 -766 -254 -1038 -483
l-78 -66 -162 55 c-349 118 -680 162 -1074 145 -920 -42 -1715 -526 -1933
-1177 -33 -98 -60 -240 -60 -313 0 -45 -2 -49 -27 -55 -531 -117 -908 -305
-1198 -599 -205 -207 -332 -437 -380 -687 -21 -108 -21 -317 0 -424 81 -421
375 -780 855 -1041 164 -89 440 -191 622 -229 l85 -18 6 -115 c4 -64 15 -154
26 -201 150 -664 861 -1176 1787 -1285 169 -20 509 -20 678 0 328 39 589 114
877 252 l136 65 86 -56 c110 -72 343 -185 477 -231 581 -201 1240 -206 1820
-15 444 146 818 407 1040 727 15 21 17 21 85 8 255 -51 660 -58 935 -16 541
83 998 297 1315 617 206 208 335 441 386 699 18 91 18 329 0 420 -50 255 -177
486 -381 695 l-95 98 18 28 c79 125 146 296 172 439 25 130 16 344 -18 477
-164 628 -815 1105 -1697 1243 -67 11 -199 19 -363 22 l-257 6 -45 86 c-58
111 -153 237 -264 349 -439 442 -1195 687 -1956 635z m620 -432 c154 -27 257
-52 374 -91 469 -158 813 -451 931 -795 29 -83 64 -130 117 -156 45 -22 47
-22 248 -9 235 15 423 5 641 -35 566 -105 1025 -400 1200 -770 59 -125 77
-208 77 -335 -1 -185 -60 -337 -203 -528 -73 -98 -86 -132 -77 -208 6 -57 40
-101 133 -172 158 -121 278 -260 350 -407 60 -122 84 -222 84 -350 0 -555
-610 -1032 -1455 -1136 -124 -15 -416 -15 -550 0 -55 6 -156 24 -225 39 -254
55 -296 41 -406 -139 -300 -489 -981 -773 -1766 -738 -395 18 -787 141 -1079
340 -57 38 -124 84 -149 102 -40 29 -52 32 -115 32 -67 0 -74 -2 -158 -53
-252 -154 -519 -246 -857 -299 -141 -21 -517 -24 -655 -5 -274 39 -500 104
-704 202 -407 197 -658 474 -721 796 -14 70 -9 205 10 309 15 82 5 136 -35
184 -38 45 -98 68 -238 91 -588 98 -1062 388 -1248 765 -67 137 -83 203 -83
350 0 142 16 210 79 340 186 386 680 683 1286 775 106 16 144 27 179 48 85 52
108 134 79 282 -13 69 -1 181 32 283 180 550 961 947 1799 914 329 -14 579
-70 879 -197 110 -46 130 -52 172 -47 64 8 97 26 155 87 270 284 691 479 1179
545 155 21 565 13 720 -14z"/>
<path d="M1721 2030 c-148 -31 -263 -92 -362 -190 -132 -130 -191 -269 -192
-450 -1 -112 18 -192 68 -289 112 -222 344 -361 605 -362 118 -1 211 20 315
71 228 111 369 333 368 580 -2 280 -189 526 -468 616 -89 29 -255 41 -334 24z
m244 -185 c250 -64 412 -290 374 -525 -52 -327 -429 -502 -740 -344 -172 87
-280 294 -250 477 46 279 336 463 616 392z"/>
<path d="M386 975 c-379 -96 -512 -550 -241 -821 239 -240 648 -187 817 106
58 99 75 257 42 371 -44 150 -165 275 -319 330 -78 27 -218 34 -299 14z m214
-201 c100 -30 153 -75 196 -168 23 -50 26 -68 22 -126 -12 -163 -137 -275
-308 -274 -97 0 -162 28 -225 95 -72 77 -96 160 -75 254 23 102 95 179 203
216 65 23 118 24 187 3z"/>
</g>
</svg>
