<svg xmlns="http://www.w3.org/2000/svg" version="1.1" xmlns:xlink="http://www.w3.org/1999/xlink" xmlns:svgjs="http://svgjs.com/svgjs" width="2560" height="1440" preserveAspectRatio="none" viewBox="0 0 2560 1440"><g mask="url(&quot;#SvgjsMask1076&quot;)" fill="none"><path d="M38.03 -41.24L102.98 -3.74L102.98 71.26L38.03 108.76L-26.92 71.26L-26.92 -3.74zM38.03 408.76L102.98 446.26L102.98 521.26L38.03 558.76L-26.92 521.26L-26.92 446.26zM102.98 971.26L167.94 1008.76L167.94 1083.76L102.98 1121.26L38.03 1083.76L38.03 1008.76zM362.8 71.26L427.75 108.76L427.75 183.76L362.8 221.26L297.85 183.76L297.85 108.76zM297.85 633.76L362.8 671.26L362.8 746.26L297.85 783.76L232.89 746.26L232.89 671.26zM362.8 1421.26L427.75 1458.76L427.75 1533.76L362.8 1571.26L297.85 1533.76L297.85 1458.76zM427.75 1083.76L492.71 1121.26L492.71 1196.26L427.75 1233.76L362.8 1196.26L362.8 1121.26zM557.66 1083.76L622.61 1121.26L622.61 1196.26L557.66 1233.76L492.71 1196.26L492.71 1121.26zM752.52 1196.26L817.48 1233.76L817.48 1308.76L752.52 1346.26L687.57 1308.76L687.57 1233.76zM947.38 183.76L1012.34 221.26L1012.34 296.26L947.38 333.76L882.43 296.26L882.43 221.26zM1012.34 296.26L1077.29 333.76L1077.29 408.76L1012.34 446.26L947.38 408.76L947.38 333.76zM1012.34 1196.26L1077.29 1233.76L1077.29 1308.76L1012.34 1346.26L947.38 1308.76L947.38 1233.76zM1077.29 633.76L1142.24 671.26L1142.24 746.26L1077.29 783.76L1012.34 746.26L1012.34 671.26zM1142.24 971.26L1207.2 1008.76L1207.2 1083.76L1142.24 1121.26L1077.29 1083.76L1077.29 1008.76zM1142.24 1196.26L1207.2 1233.76L1207.2 1308.76L1142.24 1346.26L1077.29 1308.76L1077.29 1233.76zM1272.15 296.26L1337.1 333.76L1337.1 408.76L1272.15 446.26L1207.2 408.76L1207.2 333.76zM1272.15 746.26L1337.1 783.76L1337.1 858.76L1272.15 896.26L1207.2 858.76L1207.2 783.76zM1272.15 1421.26L1337.1 1458.76L1337.1 1533.76L1272.15 1571.26L1207.2 1533.76L1207.2 1458.76zM1337.11 408.76L1402.06 446.26L1402.06 521.26L1337.11 558.76L1272.15 521.26L1272.15 446.26zM1402.06 746.26L1467.01 783.76L1467.01 858.76L1402.06 896.26L1337.11 858.76L1337.11 783.76zM1467.01 1308.76L1531.97 1346.26L1531.97 1421.26L1467.01 1458.76L1402.06 1421.26L1402.06 1346.26zM1596.92 183.76L1661.87 221.26L1661.87 296.26L1596.92 333.76L1531.97 296.26L1531.97 221.26zM1726.83 633.76L1791.78 671.26L1791.78 746.26L1726.83 783.76L1661.87 746.26L1661.87 671.26zM1856.73 183.76L1921.69 221.26L1921.69 296.26L1856.73 333.76L1791.78 296.26L1791.78 221.26zM1921.69 746.26L1986.64 783.76L1986.64 858.76L1921.69 896.26L1856.73 858.76L1856.73 783.76zM2051.6 71.26L2116.55 108.76L2116.55 183.76L2051.6 221.26L1986.64 183.76L1986.64 108.76zM2051.6 746.26L2116.55 783.76L2116.55 858.76L2051.6 896.26L1986.64 858.76L1986.64 783.76zM2051.6 1421.26L2116.55 1458.76L2116.55 1533.76L2051.6 1571.26L1986.64 1533.76L1986.64 1458.76zM2181.5 521.26L2246.46 558.76L2246.46 633.76L2181.5 671.26L2116.55 633.76L2116.55 558.76zM2181.5 971.26L2246.46 1008.76L2246.46 1083.76L2181.5 1121.26L2116.55 1083.76L2116.55 1008.76zM2311.41 71.26L2376.37 108.76L2376.37 183.76L2311.41 221.26L2246.46 183.76L2246.46 108.76zM2246.46 183.76L2311.41 221.26L2311.41 296.26L2246.46 333.76L2181.5 296.26L2181.5 221.26zM2311.41 296.26L2376.37 333.76L2376.37 408.76L2311.41 446.26L2246.46 408.76L2246.46 333.76zM2311.41 746.26L2376.37 783.76L2376.37 858.76L2311.41 896.26L2246.46 858.76L2246.46 783.76zM2311.41 1196.26L2376.37 1233.76L2376.37 1308.76L2311.41 1346.26L2246.46 1308.76L2246.46 1233.76zM2376.37 183.76L2441.32 221.26L2441.32 296.26L2376.37 333.76L2311.41 296.26L2311.41 221.26zM2376.37 858.76L2441.32 896.26L2441.32 971.26L2376.37 1008.76L2311.41 971.26L2311.41 896.26zM2506.27 408.76L2571.23 446.26L2571.23 521.26L2506.27 558.76L2441.32 521.26L2441.32 446.26zM2506.27 858.76L2571.23 896.26L2571.23 971.26L2506.27 1008.76L2441.32 971.26L2441.32 896.26zM2571.23 971.26L2636.18 1008.76L2636.18 1083.76L2571.23 1121.26L2506.27 1083.76L2506.27 1008.76z" stroke="rgba(126, 179, 233, 1)" stroke-width="2"></path><path d="M30.53 -41.24 a7.5 7.5 0 1 0 15 0 a7.5 7.5 0 1 0 -15 0zM95.48 -3.74 a7.5 7.5 0 1 0 15 0 a7.5 7.5 0 1 0 -15 0zM95.48 71.26 a7.5 7.5 0 1 0 15 0 a7.5 7.5 0 1 0 -15 0zM30.53 108.76 a7.5 7.5 0 1 0 15 0 a7.5 7.5 0 1 0 -15 0zM-34.42 71.26 a7.5 7.5 0 1 0 15 0 a7.5 7.5 0 1 0 -15 0zM-34.42 -3.74 a7.5 7.5 0 1 0 15 0 a7.5 7.5 0 1 0 -15 0zM30.53 408.76 a7.5 7.5 0 1 0 15 0 a7.5 7.5 0 1 0 -15 0zM95.48 446.26 a7.5 7.5 0 1 0 15 0 a7.5 7.5 0 1 0 -15 0zM95.48 521.26 a7.5 7.5 0 1 0 15 0 a7.5 7.5 0 1 0 -15 0zM30.53 558.76 a7.5 7.5 0 1 0 15 0 a7.5 7.5 0 1 0 -15 0zM-34.42 521.26 a7.5 7.5 0 1 0 15 0 a7.5 7.5 0 1 0 -15 0zM-34.42 446.26 a7.5 7.5 0 1 0 15 0 a7.5 7.5 0 1 0 -15 0zM95.48 971.26 a7.5 7.5 0 1 0 15 0 a7.5 7.5 0 1 0 -15 0zM160.44 1008.76 a7.5 7.5 0 1 0 15 0 a7.5 7.5 0 1 0 -15 0zM160.44 1083.76 a7.5 7.5 0 1 0 15 0 a7.5 7.5 0 1 0 -15 0zM95.48 1121.26 a7.5 7.5 0 1 0 15 0 a7.5 7.5 0 1 0 -15 0zM30.53 1083.76 a7.5 7.5 0 1 0 15 0 a7.5 7.5 0 1 0 -15 0zM30.53 1008.76 a7.5 7.5 0 1 0 15 0 a7.5 7.5 0 1 0 -15 0zM355.3 71.26 a7.5 7.5 0 1 0 15 0 a7.5 7.5 0 1 0 -15 0zM420.25 108.76 a7.5 7.5 0 1 0 15 0 a7.5 7.5 0 1 0 -15 0zM420.25 183.76 a7.5 7.5 0 1 0 15 0 a7.5 7.5 0 1 0 -15 0zM355.3 221.26 a7.5 7.5 0 1 0 15 0 a7.5 7.5 0 1 0 -15 0zM290.35 183.76 a7.5 7.5 0 1 0 15 0 a7.5 7.5 0 1 0 -15 0zM290.35 108.76 a7.5 7.5 0 1 0 15 0 a7.5 7.5 0 1 0 -15 0zM290.35 633.76 a7.5 7.5 0 1 0 15 0 a7.5 7.5 0 1 0 -15 0zM355.3 671.26 a7.5 7.5 0 1 0 15 0 a7.5 7.5 0 1 0 -15 0zM355.3 746.26 a7.5 7.5 0 1 0 15 0 a7.5 7.5 0 1 0 -15 0zM290.35 783.76 a7.5 7.5 0 1 0 15 0 a7.5 7.5 0 1 0 -15 0zM225.39 746.26 a7.5 7.5 0 1 0 15 0 a7.5 7.5 0 1 0 -15 0zM225.39 671.26 a7.5 7.5 0 1 0 15 0 a7.5 7.5 0 1 0 -15 0zM355.3 1421.26 a7.5 7.5 0 1 0 15 0 a7.5 7.5 0 1 0 -15 0zM420.25 1458.76 a7.5 7.5 0 1 0 15 0 a7.5 7.5 0 1 0 -15 0zM420.25 1533.76 a7.5 7.5 0 1 0 15 0 a7.5 7.5 0 1 0 -15 0zM355.3 1571.26 a7.5 7.5 0 1 0 15 0 a7.5 7.5 0 1 0 -15 0zM290.35 1533.76 a7.5 7.5 0 1 0 15 0 a7.5 7.5 0 1 0 -15 0zM290.35 1458.76 a7.5 7.5 0 1 0 15 0 a7.5 7.5 0 1 0 -15 0zM420.25 1083.76 a7.5 7.5 0 1 0 15 0 a7.5 7.5 0 1 0 -15 0zM485.21 1121.26 a7.5 7.5 0 1 0 15 0 a7.5 7.5 0 1 0 -15 0zM485.21 1196.26 a7.5 7.5 0 1 0 15 0 a7.5 7.5 0 1 0 -15 0zM420.25 1233.76 a7.5 7.5 0 1 0 15 0 a7.5 7.5 0 1 0 -15 0zM355.3 1196.26 a7.5 7.5 0 1 0 15 0 a7.5 7.5 0 1 0 -15 0zM355.3 1121.26 a7.5 7.5 0 1 0 15 0 a7.5 7.5 0 1 0 -15 0zM550.16 1083.76 a7.5 7.5 0 1 0 15 0 a7.5 7.5 0 1 0 -15 0zM615.11 1121.26 a7.5 7.5 0 1 0 15 0 a7.5 7.5 0 1 0 -15 0zM615.11 1196.26 a7.5 7.5 0 1 0 15 0 a7.5 7.5 0 1 0 -15 0zM550.16 1233.76 a7.5 7.5 0 1 0 15 0 a7.5 7.5 0 1 0 -15 0zM745.02 1196.26 a7.5 7.5 0 1 0 15 0 a7.5 7.5 0 1 0 -15 0zM809.98 1233.76 a7.5 7.5 0 1 0 15 0 a7.5 7.5 0 1 0 -15 0zM809.98 1308.76 a7.5 7.5 0 1 0 15 0 a7.5 7.5 0 1 0 -15 0zM745.02 1346.26 a7.5 7.5 0 1 0 15 0 a7.5 7.5 0 1 0 -15 0zM680.07 1308.76 a7.5 7.5 0 1 0 15 0 a7.5 7.5 0 1 0 -15 0zM680.07 1233.76 a7.5 7.5 0 1 0 15 0 a7.5 7.5 0 1 0 -15 0zM939.88 183.76 a7.5 7.5 0 1 0 15 0 a7.5 7.5 0 1 0 -15 0zM1004.84 221.26 a7.5 7.5 0 1 0 15 0 a7.5 7.5 0 1 0 -15 0zM1004.84 296.26 a7.5 7.5 0 1 0 15 0 a7.5 7.5 0 1 0 -15 0zM939.88 333.76 a7.5 7.5 0 1 0 15 0 a7.5 7.5 0 1 0 -15 0zM874.93 296.26 a7.5 7.5 0 1 0 15 0 a7.5 7.5 0 1 0 -15 0zM874.93 221.26 a7.5 7.5 0 1 0 15 0 a7.5 7.5 0 1 0 -15 0zM1069.79 333.76 a7.5 7.5 0 1 0 15 0 a7.5 7.5 0 1 0 -15 0zM1069.79 408.76 a7.5 7.5 0 1 0 15 0 a7.5 7.5 0 1 0 -15 0zM1004.84 446.26 a7.5 7.5 0 1 0 15 0 a7.5 7.5 0 1 0 -15 0zM939.88 408.76 a7.5 7.5 0 1 0 15 0 a7.5 7.5 0 1 0 -15 0zM1004.84 1196.26 a7.5 7.5 0 1 0 15 0 a7.5 7.5 0 1 0 -15 0zM1069.79 1233.76 a7.5 7.5 0 1 0 15 0 a7.5 7.5 0 1 0 -15 0zM1069.79 1308.76 a7.5 7.5 0 1 0 15 0 a7.5 7.5 0 1 0 -15 0zM1004.84 1346.26 a7.5 7.5 0 1 0 15 0 a7.5 7.5 0 1 0 -15 0zM939.88 1308.76 a7.5 7.5 0 1 0 15 0 a7.5 7.5 0 1 0 -15 0zM939.88 1233.76 a7.5 7.5 0 1 0 15 0 a7.5 7.5 0 1 0 -15 0zM1069.79 633.76 a7.5 7.5 0 1 0 15 0 a7.5 7.5 0 1 0 -15 0zM1134.74 671.26 a7.5 7.5 0 1 0 15 0 a7.5 7.5 0 1 0 -15 0zM1134.74 746.26 a7.5 7.5 0 1 0 15 0 a7.5 7.5 0 1 0 -15 0zM1069.79 783.76 a7.5 7.5 0 1 0 15 0 a7.5 7.5 0 1 0 -15 0zM1004.84 746.26 a7.5 7.5 0 1 0 15 0 a7.5 7.5 0 1 0 -15 0zM1004.84 671.26 a7.5 7.5 0 1 0 15 0 a7.5 7.5 0 1 0 -15 0zM1134.74 971.26 a7.5 7.5 0 1 0 15 0 a7.5 7.5 0 1 0 -15 0zM1199.7 1008.76 a7.5 7.5 0 1 0 15 0 a7.5 7.5 0 1 0 -15 0zM1199.7 1083.76 a7.5 7.5 0 1 0 15 0 a7.5 7.5 0 1 0 -15 0zM1134.74 1121.26 a7.5 7.5 0 1 0 15 0 a7.5 7.5 0 1 0 -15 0zM1069.79 1083.76 a7.5 7.5 0 1 0 15 0 a7.5 7.5 0 1 0 -15 0zM1069.79 1008.76 a7.5 7.5 0 1 0 15 0 a7.5 7.5 0 1 0 -15 0zM1134.74 1196.26 a7.5 7.5 0 1 0 15 0 a7.5 7.5 0 1 0 -15 0zM1199.7 1233.76 a7.5 7.5 0 1 0 15 0 a7.5 7.5 0 1 0 -15 0zM1199.7 1308.76 a7.5 7.5 0 1 0 15 0 a7.5 7.5 0 1 0 -15 0zM1134.74 1346.26 a7.5 7.5 0 1 0 15 0 a7.5 7.5 0 1 0 -15 0zM1264.65 296.26 a7.5 7.5 0 1 0 15 0 a7.5 7.5 0 1 0 -15 0zM1329.6 333.76 a7.5 7.5 0 1 0 15 0 a7.5 7.5 0 1 0 -15 0zM1329.6 408.76 a7.5 7.5 0 1 0 15 0 a7.5 7.5 0 1 0 -15 0zM1264.65 446.26 a7.5 7.5 0 1 0 15 0 a7.5 7.5 0 1 0 -15 0zM1199.7 408.76 a7.5 7.5 0 1 0 15 0 a7.5 7.5 0 1 0 -15 0zM1199.7 333.76 a7.5 7.5 0 1 0 15 0 a7.5 7.5 0 1 0 -15 0zM1264.65 746.26 a7.5 7.5 0 1 0 15 0 a7.5 7.5 0 1 0 -15 0zM1329.6 783.76 a7.5 7.5 0 1 0 15 0 a7.5 7.5 0 1 0 -15 0zM1329.6 858.76 a7.5 7.5 0 1 0 15 0 a7.5 7.5 0 1 0 -15 0zM1264.65 896.26 a7.5 7.5 0 1 0 15 0 a7.5 7.5 0 1 0 -15 0zM1199.7 858.76 a7.5 7.5 0 1 0 15 0 a7.5 7.5 0 1 0 -15 0zM1199.7 783.76 a7.5 7.5 0 1 0 15 0 a7.5 7.5 0 1 0 -15 0zM1264.65 1421.26 a7.5 7.5 0 1 0 15 0 a7.5 7.5 0 1 0 -15 0zM1329.6 1458.76 a7.5 7.5 0 1 0 15 0 a7.5 7.5 0 1 0 -15 0zM1329.6 1533.76 a7.5 7.5 0 1 0 15 0 a7.5 7.5 0 1 0 -15 0zM1264.65 1571.26 a7.5 7.5 0 1 0 15 0 a7.5 7.5 0 1 0 -15 0zM1199.7 1533.76 a7.5 7.5 0 1 0 15 0 a7.5 7.5 0 1 0 -15 0zM1199.7 1458.76 a7.5 7.5 0 1 0 15 0 a7.5 7.5 0 1 0 -15 0zM1329.61 408.76 a7.5 7.5 0 1 0 15 0 a7.5 7.5 0 1 0 -15 0zM1394.56 446.26 a7.5 7.5 0 1 0 15 0 a7.5 7.5 0 1 0 -15 0zM1394.56 521.26 a7.5 7.5 0 1 0 15 0 a7.5 7.5 0 1 0 -15 0zM1329.61 558.76 a7.5 7.5 0 1 0 15 0 a7.5 7.5 0 1 0 -15 0zM1264.65 521.26 a7.5 7.5 0 1 0 15 0 a7.5 7.5 0 1 0 -15 0zM1394.56 746.26 a7.5 7.5 0 1 0 15 0 a7.5 7.5 0 1 0 -15 0zM1459.51 783.76 a7.5 7.5 0 1 0 15 0 a7.5 7.5 0 1 0 -15 0zM1459.51 858.76 a7.5 7.5 0 1 0 15 0 a7.5 7.5 0 1 0 -15 0zM1394.56 896.26 a7.5 7.5 0 1 0 15 0 a7.5 7.5 0 1 0 -15 0zM1329.61 858.76 a7.5 7.5 0 1 0 15 0 a7.5 7.5 0 1 0 -15 0zM1329.61 783.76 a7.5 7.5 0 1 0 15 0 a7.5 7.5 0 1 0 -15 0zM1459.51 1308.76 a7.5 7.5 0 1 0 15 0 a7.5 7.5 0 1 0 -15 0zM1524.47 1346.26 a7.5 7.5 0 1 0 15 0 a7.5 7.5 0 1 0 -15 0zM1524.47 1421.26 a7.5 7.5 0 1 0 15 0 a7.5 7.5 0 1 0 -15 0zM1459.51 1458.76 a7.5 7.5 0 1 0 15 0 a7.5 7.5 0 1 0 -15 0zM1394.56 1421.26 a7.5 7.5 0 1 0 15 0 a7.5 7.5 0 1 0 -15 0zM1394.56 1346.26 a7.5 7.5 0 1 0 15 0 a7.5 7.5 0 1 0 -15 0zM1589.42 183.76 a7.5 7.5 0 1 0 15 0 a7.5 7.5 0 1 0 -15 0zM1654.37 221.26 a7.5 7.5 0 1 0 15 0 a7.5 7.5 0 1 0 -15 0zM1654.37 296.26 a7.5 7.5 0 1 0 15 0 a7.5 7.5 0 1 0 -15 0zM1589.42 333.76 a7.5 7.5 0 1 0 15 0 a7.5 7.5 0 1 0 -15 0zM1524.47 296.26 a7.5 7.5 0 1 0 15 0 a7.5 7.5 0 1 0 -15 0zM1524.47 221.26 a7.5 7.5 0 1 0 15 0 a7.5 7.5 0 1 0 -15 0zM1719.33 633.76 a7.5 7.5 0 1 0 15 0 a7.5 7.5 0 1 0 -15 0zM1784.28 671.26 a7.5 7.5 0 1 0 15 0 a7.5 7.5 0 1 0 -15 0zM1784.28 746.26 a7.5 7.5 0 1 0 15 0 a7.5 7.5 0 1 0 -15 0zM1719.33 783.76 a7.5 7.5 0 1 0 15 0 a7.5 7.5 0 1 0 -15 0zM1654.37 746.26 a7.5 7.5 0 1 0 15 0 a7.5 7.5 0 1 0 -15 0zM1654.37 671.26 a7.5 7.5 0 1 0 15 0 a7.5 7.5 0 1 0 -15 0zM1849.23 183.76 a7.5 7.5 0 1 0 15 0 a7.5 7.5 0 1 0 -15 0zM1914.19 221.26 a7.5 7.5 0 1 0 15 0 a7.5 7.5 0 1 0 -15 0zM1914.19 296.26 a7.5 7.5 0 1 0 15 0 a7.5 7.5 0 1 0 -15 0zM1849.23 333.76 a7.5 7.5 0 1 0 15 0 a7.5 7.5 0 1 0 -15 0zM1784.28 296.26 a7.5 7.5 0 1 0 15 0 a7.5 7.5 0 1 0 -15 0zM1784.28 221.26 a7.5 7.5 0 1 0 15 0 a7.5 7.5 0 1 0 -15 0zM1914.19 746.26 a7.5 7.5 0 1 0 15 0 a7.5 7.5 0 1 0 -15 0zM1979.14 783.76 a7.5 7.5 0 1 0 15 0 a7.5 7.5 0 1 0 -15 0zM1979.14 858.76 a7.5 7.5 0 1 0 15 0 a7.5 7.5 0 1 0 -15 0zM1914.19 896.26 a7.5 7.5 0 1 0 15 0 a7.5 7.5 0 1 0 -15 0zM1849.23 858.76 a7.5 7.5 0 1 0 15 0 a7.5 7.5 0 1 0 -15 0zM1849.23 783.76 a7.5 7.5 0 1 0 15 0 a7.5 7.5 0 1 0 -15 0zM2044.1 71.26 a7.5 7.5 0 1 0 15 0 a7.5 7.5 0 1 0 -15 0zM2109.05 108.76 a7.5 7.5 0 1 0 15 0 a7.5 7.5 0 1 0 -15 0zM2109.05 183.76 a7.5 7.5 0 1 0 15 0 a7.5 7.5 0 1 0 -15 0zM2044.1 221.26 a7.5 7.5 0 1 0 15 0 a7.5 7.5 0 1 0 -15 0zM1979.14 183.76 a7.5 7.5 0 1 0 15 0 a7.5 7.5 0 1 0 -15 0zM1979.14 108.76 a7.5 7.5 0 1 0 15 0 a7.5 7.5 0 1 0 -15 0zM2044.1 746.26 a7.5 7.5 0 1 0 15 0 a7.5 7.5 0 1 0 -15 0zM2109.05 783.76 a7.5 7.5 0 1 0 15 0 a7.5 7.5 0 1 0 -15 0zM2109.05 858.76 a7.5 7.5 0 1 0 15 0 a7.5 7.5 0 1 0 -15 0zM2044.1 896.26 a7.5 7.5 0 1 0 15 0 a7.5 7.5 0 1 0 -15 0zM2044.1 1421.26 a7.5 7.5 0 1 0 15 0 a7.5 7.5 0 1 0 -15 0zM2109.05 1458.76 a7.5 7.5 0 1 0 15 0 a7.5 7.5 0 1 0 -15 0zM2109.05 1533.76 a7.5 7.5 0 1 0 15 0 a7.5 7.5 0 1 0 -15 0zM2044.1 1571.26 a7.5 7.5 0 1 0 15 0 a7.5 7.5 0 1 0 -15 0zM1979.14 1533.76 a7.5 7.5 0 1 0 15 0 a7.5 7.5 0 1 0 -15 0zM1979.14 1458.76 a7.5 7.5 0 1 0 15 0 a7.5 7.5 0 1 0 -15 0zM2174 521.26 a7.5 7.5 0 1 0 15 0 a7.5 7.5 0 1 0 -15 0zM2238.96 558.76 a7.5 7.5 0 1 0 15 0 a7.5 7.5 0 1 0 -15 0zM2238.96 633.76 a7.5 7.5 0 1 0 15 0 a7.5 7.5 0 1 0 -15 0zM2174 671.26 a7.5 7.5 0 1 0 15 0 a7.5 7.5 0 1 0 -15 0zM2109.05 633.76 a7.5 7.5 0 1 0 15 0 a7.5 7.5 0 1 0 -15 0zM2109.05 558.76 a7.5 7.5 0 1 0 15 0 a7.5 7.5 0 1 0 -15 0zM2174 971.26 a7.5 7.5 0 1 0 15 0 a7.5 7.5 0 1 0 -15 0zM2238.96 1008.76 a7.5 7.5 0 1 0 15 0 a7.5 7.5 0 1 0 -15 0zM2238.96 1083.76 a7.5 7.5 0 1 0 15 0 a7.5 7.5 0 1 0 -15 0zM2174 1121.26 a7.5 7.5 0 1 0 15 0 a7.5 7.5 0 1 0 -15 0zM2109.05 1083.76 a7.5 7.5 0 1 0 15 0 a7.5 7.5 0 1 0 -15 0zM2109.05 1008.76 a7.5 7.5 0 1 0 15 0 a7.5 7.5 0 1 0 -15 0zM2303.91 71.26 a7.5 7.5 0 1 0 15 0 a7.5 7.5 0 1 0 -15 0zM2368.87 108.76 a7.5 7.5 0 1 0 15 0 a7.5 7.5 0 1 0 -15 0zM2368.87 183.76 a7.5 7.5 0 1 0 15 0 a7.5 7.5 0 1 0 -15 0zM2303.91 221.26 a7.5 7.5 0 1 0 15 0 a7.5 7.5 0 1 0 -15 0zM2238.96 183.76 a7.5 7.5 0 1 0 15 0 a7.5 7.5 0 1 0 -15 0zM2238.96 108.76 a7.5 7.5 0 1 0 15 0 a7.5 7.5 0 1 0 -15 0zM2303.91 296.26 a7.5 7.5 0 1 0 15 0 a7.5 7.5 0 1 0 -15 0zM2238.96 333.76 a7.5 7.5 0 1 0 15 0 a7.5 7.5 0 1 0 -15 0zM2174 296.26 a7.5 7.5 0 1 0 15 0 a7.5 7.5 0 1 0 -15 0zM2174 221.26 a7.5 7.5 0 1 0 15 0 a7.5 7.5 0 1 0 -15 0zM2368.87 333.76 a7.5 7.5 0 1 0 15 0 a7.5 7.5 0 1 0 -15 0zM2368.87 408.76 a7.5 7.5 0 1 0 15 0 a7.5 7.5 0 1 0 -15 0zM2303.91 446.26 a7.5 7.5 0 1 0 15 0 a7.5 7.5 0 1 0 -15 0zM2238.96 408.76 a7.5 7.5 0 1 0 15 0 a7.5 7.5 0 1 0 -15 0zM2303.91 746.26 a7.5 7.5 0 1 0 15 0 a7.5 7.5 0 1 0 -15 0zM2368.87 783.76 a7.5 7.5 0 1 0 15 0 a7.5 7.5 0 1 0 -15 0zM2368.87 858.76 a7.5 7.5 0 1 0 15 0 a7.5 7.5 0 1 0 -15 0zM2303.91 896.26 a7.5 7.5 0 1 0 15 0 a7.5 7.5 0 1 0 -15 0zM2238.96 858.76 a7.5 7.5 0 1 0 15 0 a7.5 7.5 0 1 0 -15 0zM2238.96 783.76 a7.5 7.5 0 1 0 15 0 a7.5 7.5 0 1 0 -15 0zM2303.91 1196.26 a7.5 7.5 0 1 0 15 0 a7.5 7.5 0 1 0 -15 0zM2368.87 1233.76 a7.5 7.5 0 1 0 15 0 a7.5 7.5 0 1 0 -15 0zM2368.87 1308.76 a7.5 7.5 0 1 0 15 0 a7.5 7.5 0 1 0 -15 0zM2303.91 1346.26 a7.5 7.5 0 1 0 15 0 a7.5 7.5 0 1 0 -15 0zM2238.96 1308.76 a7.5 7.5 0 1 0 15 0 a7.5 7.5 0 1 0 -15 0zM2238.96 1233.76 a7.5 7.5 0 1 0 15 0 a7.5 7.5 0 1 0 -15 0zM2433.82 221.26 a7.5 7.5 0 1 0 15 0 a7.5 7.5 0 1 0 -15 0zM2433.82 296.26 a7.5 7.5 0 1 0 15 0 a7.5 7.5 0 1 0 -15 0zM2433.82 896.26 a7.5 7.5 0 1 0 15 0 a7.5 7.5 0 1 0 -15 0zM2433.82 971.26 a7.5 7.5 0 1 0 15 0 a7.5 7.5 0 1 0 -15 0zM2368.87 1008.76 a7.5 7.5 0 1 0 15 0 a7.5 7.5 0 1 0 -15 0zM2303.91 971.26 a7.5 7.5 0 1 0 15 0 a7.5 7.5 0 1 0 -15 0zM2498.77 408.76 a7.5 7.5 0 1 0 15 0 a7.5 7.5 0 1 0 -15 0zM2563.73 446.26 a7.5 7.5 0 1 0 15 0 a7.5 7.5 0 1 0 -15 0zM2563.73 521.26 a7.5 7.5 0 1 0 15 0 a7.5 7.5 0 1 0 -15 0zM2498.77 558.76 a7.5 7.5 0 1 0 15 0 a7.5 7.5 0 1 0 -15 0zM2433.82 521.26 a7.5 7.5 0 1 0 15 0 a7.5 7.5 0 1 0 -15 0zM2433.82 446.26 a7.5 7.5 0 1 0 15 0 a7.5 7.5 0 1 0 -15 0zM2498.77 858.76 a7.5 7.5 0 1 0 15 0 a7.5 7.5 0 1 0 -15 0zM2563.73 896.26 a7.5 7.5 0 1 0 15 0 a7.5 7.5 0 1 0 -15 0zM2563.73 971.26 a7.5 7.5 0 1 0 15 0 a7.5 7.5 0 1 0 -15 0zM2498.77 1008.76 a7.5 7.5 0 1 0 15 0 a7.5 7.5 0 1 0 -15 0zM2628.68 1008.76 a7.5 7.5 0 1 0 15 0 a7.5 7.5 0 1 0 -15 0zM2628.68 1083.76 a7.5 7.5 0 1 0 15 0 a7.5 7.5 0 1 0 -15 0zM2563.73 1121.26 a7.5 7.5 0 1 0 15 0 a7.5 7.5 0 1 0 -15 0zM2498.77 1083.76 a7.5 7.5 0 1 0 15 0 a7.5 7.5 0 1 0 -15 0z" fill="rgba(126, 179, 233, 1)"></path><path d="M81.48 190.21L123.05 214.21L123.05 262.21L81.48 286.21L39.91 262.21L39.91 214.21zM39.91 694.21L81.48 718.21L81.48 766.21L39.91 790.21L-1.66 766.21L-1.66 718.21zM81.48 766.21L123.05 790.21L123.05 838.21L81.48 862.21L39.91 838.21L39.91 790.21zM39.91 982.21L81.48 1006.21L81.48 1054.21L39.91 1078.21L-1.66 1054.21L-1.66 1006.21zM39.91 1126.21L81.48 1150.21L81.48 1198.21L39.91 1222.21L-1.66 1198.21L-1.66 1150.21zM81.48 1198.21L123.05 1222.21L123.05 1270.21L81.48 1294.21L39.91 1270.21L39.91 1222.21zM81.48 1342.21L123.05 1366.21L123.05 1414.21L81.48 1438.21L39.91 1414.21L39.91 1366.21zM123.05 -25.79L164.62 -1.79L164.62 46.21L123.05 70.21L81.48 46.21L81.48 -1.79zM123.05 118.21L164.62 142.21L164.62 190.21L123.05 214.21L81.48 190.21L81.48 142.21zM164.62 622.21L206.19 646.21L206.19 694.21L164.62 718.21L123.05 694.21L123.05 646.21zM123.05 694.21L164.62 718.21L164.62 766.21L123.05 790.21L81.48 766.21L81.48 718.21zM164.62 766.21L206.19 790.21L206.19 838.21L164.62 862.21L123.05 838.21L123.05 790.21zM123.05 838.21L164.62 862.21L164.62 910.21L123.05 934.21L81.48 910.21L81.48 862.21zM164.62 1054.21L206.19 1078.21L206.19 1126.21L164.62 1150.21L123.05 1126.21L123.05 1078.21zM123.05 1270.21L164.62 1294.21L164.62 1342.21L123.05 1366.21L81.48 1342.21L81.48 1294.21zM206.19 -25.79L247.76 -1.79L247.76 46.21L206.19 70.21L164.62 46.21L164.62 -1.79zM206.19 550.21L247.76 574.21L247.76 622.21L206.19 646.21L164.62 622.21L164.62 574.21zM247.76 910.21L289.33 934.21L289.33 982.21L247.76 1006.21L206.19 982.21L206.19 934.21zM247.76 1054.21L289.33 1078.21L289.33 1126.21L247.76 1150.21L206.19 1126.21L206.19 1078.21zM206.19 1126.21L247.76 1150.21L247.76 1198.21L206.19 1222.21L164.62 1198.21L164.62 1150.21zM247.76 1198.21L289.33 1222.21L289.33 1270.21L247.76 1294.21L206.19 1270.21L206.19 1222.21zM206.19 1270.21L247.76 1294.21L247.76 1342.21L206.19 1366.21L164.62 1342.21L164.62 1294.21zM247.76 1342.21L289.33 1366.21L289.33 1414.21L247.76 1438.21L206.19 1414.21L206.19 1366.21zM330.9 334.21L372.47 358.21L372.47 406.21L330.9 430.21L289.33 406.21L289.33 358.21zM289.33 406.21L330.9 430.21L330.9 478.21L289.33 502.21L247.76 478.21L247.76 430.21zM330.9 910.21L372.47 934.21L372.47 982.21L330.9 1006.21L289.33 982.21L289.33 934.21zM330.9 1054.21L372.47 1078.21L372.47 1126.21L330.9 1150.21L289.33 1126.21L289.33 1078.21zM289.33 1126.21L330.9 1150.21L330.9 1198.21L289.33 1222.21L247.76 1198.21L247.76 1150.21zM330.9 1198.21L372.47 1222.21L372.47 1270.21L330.9 1294.21L289.33 1270.21L289.33 1222.21zM372.47 -25.79L414.04 -1.79L414.04 46.21L372.47 70.21L330.9 46.21L330.9 -1.79zM372.47 406.21L414.04 430.21L414.04 478.21L372.47 502.21L330.9 478.21L330.9 430.21zM372.47 694.21L414.04 718.21L414.04 766.21L372.47 790.21L330.9 766.21L330.9 718.21zM414.04 1054.21L455.61 1078.21L455.61 1126.21L414.04 1150.21L372.47 1126.21L372.47 1078.21zM372.47 1126.21L414.04 1150.21L414.04 1198.21L372.47 1222.21L330.9 1198.21L330.9 1150.21zM414.04 1198.21L455.61 1222.21L455.61 1270.21L414.04 1294.21L372.47 1270.21L372.47 1222.21zM372.47 1270.21L414.04 1294.21L414.04 1342.21L372.47 1366.21L330.9 1342.21L330.9 1294.21zM372.47 1414.21L414.04 1438.21L414.04 1486.21L372.47 1510.21L330.9 1486.21L330.9 1438.21zM497.18 46.21L538.75 70.21L538.75 118.21L497.18 142.21L455.61 118.21L455.61 70.21zM455.61 262.21L497.18 286.21L497.18 334.21L455.61 358.21L414.04 334.21L414.04 286.21zM497.18 334.21L538.75 358.21L538.75 406.21L497.18 430.21L455.61 406.21L455.61 358.21zM455.61 406.21L497.18 430.21L497.18 478.21L455.61 502.21L414.04 478.21L414.04 430.21zM497.18 622.21L538.75 646.21L538.75 694.21L497.18 718.21L455.61 694.21L455.61 646.21zM455.61 694.21L497.18 718.21L497.18 766.21L455.61 790.21L414.04 766.21L414.04 718.21zM497.18 910.21L538.75 934.21L538.75 982.21L497.18 1006.21L455.61 982.21L455.61 934.21zM497.18 1054.21L538.75 1078.21L538.75 1126.21L497.18 1150.21L455.61 1126.21L455.61 1078.21zM497.18 1198.21L538.75 1222.21L538.75 1270.21L497.18 1294.21L455.61 1270.21L455.61 1222.21zM497.18 1342.21L538.75 1366.21L538.75 1414.21L497.18 1438.21L455.61 1414.21L455.61 1366.21zM455.61 1414.21L497.18 1438.21L497.18 1486.21L455.61 1510.21L414.04 1486.21L414.04 1438.21zM580.33 46.21L621.9 70.21L621.9 118.21L580.33 142.21L538.75 118.21L538.75 70.21zM538.75 118.21L580.33 142.21L580.33 190.21L538.75 214.21L497.18 190.21L497.18 142.21zM580.33 478.21L621.9 502.21L621.9 550.21L580.33 574.21L538.75 550.21L538.75 502.21zM538.75 694.21L580.33 718.21L580.33 766.21L538.75 790.21L497.18 766.21L497.18 718.21zM580.33 1054.21L621.9 1078.21L621.9 1126.21L580.33 1150.21L538.75 1126.21L538.75 1078.21zM538.75 1126.21L580.33 1150.21L580.33 1198.21L538.75 1222.21L497.18 1198.21L497.18 1150.21zM580.33 1198.21L621.9 1222.21L621.9 1270.21L580.33 1294.21L538.75 1270.21L538.75 1222.21zM621.9 -25.79L663.47 -1.79L663.47 46.21L621.9 70.21L580.33 46.21L580.33 -1.79zM621.9 118.21L663.47 142.21L663.47 190.21L621.9 214.21L580.33 190.21L580.33 142.21zM663.47 190.21L705.04 214.21L705.04 262.21L663.47 286.21L621.9 262.21L621.9 214.21zM663.47 334.21L705.04 358.21L705.04 406.21L663.47 430.21L621.9 406.21L621.9 358.21zM621.9 406.21L663.47 430.21L663.47 478.21L621.9 502.21L580.33 478.21L580.33 430.21zM621.9 550.21L663.47 574.21L663.47 622.21L621.9 646.21L580.33 622.21L580.33 574.21zM663.47 622.21L705.04 646.21L705.04 694.21L663.47 718.21L621.9 694.21L621.9 646.21zM621.9 694.21L663.47 718.21L663.47 766.21L621.9 790.21L580.33 766.21L580.33 718.21zM663.47 766.21L705.04 790.21L705.04 838.21L663.47 862.21L621.9 838.21L621.9 790.21zM621.9 982.21L663.47 1006.21L663.47 1054.21L621.9 1078.21L580.33 1054.21L580.33 1006.21zM621.9 1126.21L663.47 1150.21L663.47 1198.21L621.9 1222.21L580.33 1198.21L580.33 1150.21zM663.47 1342.21L705.04 1366.21L705.04 1414.21L663.47 1438.21L621.9 1414.21L621.9 1366.21zM746.61 334.21L788.18 358.21L788.18 406.21L746.61 430.21L705.04 406.21L705.04 358.21zM705.04 406.21L746.61 430.21L746.61 478.21L705.04 502.21L663.47 478.21L663.47 430.21zM746.61 478.21L788.18 502.21L788.18 550.21L746.61 574.21L705.04 550.21L705.04 502.21zM746.61 766.21L788.18 790.21L788.18 838.21L746.61 862.21L705.04 838.21L705.04 790.21zM746.61 910.21L788.18 934.21L788.18 982.21L746.61 1006.21L705.04 982.21L705.04 934.21zM705.04 982.21L746.61 1006.21L746.61 1054.21L705.04 1078.21L663.47 1054.21L663.47 1006.21zM746.61 1198.21L788.18 1222.21L788.18 1270.21L746.61 1294.21L705.04 1270.21L705.04 1222.21zM746.61 1342.21L788.18 1366.21L788.18 1414.21L746.61 1438.21L705.04 1414.21L705.04 1366.21zM788.18 -25.79L829.75 -1.79L829.75 46.21L788.18 70.21L746.61 46.21L746.61 -1.79zM829.75 46.21L871.32 70.21L871.32 118.21L829.75 142.21L788.18 118.21L788.18 70.21zM829.75 190.21L871.32 214.21L871.32 262.21L829.75 286.21L788.18 262.21L788.18 214.21zM788.18 406.21L829.75 430.21L829.75 478.21L788.18 502.21L746.61 478.21L746.61 430.21zM829.75 478.21L871.32 502.21L871.32 550.21L829.75 574.21L788.18 550.21L788.18 502.21zM829.75 622.21L871.32 646.21L871.32 694.21L829.75 718.21L788.18 694.21L788.18 646.21zM788.18 982.21L829.75 1006.21L829.75 1054.21L788.18 1078.21L746.61 1054.21L746.61 1006.21zM829.75 1054.21L871.32 1078.21L871.32 1126.21L829.75 1150.21L788.18 1126.21L788.18 1078.21zM788.18 1270.21L829.75 1294.21L829.75 1342.21L788.18 1366.21L746.61 1342.21L746.61 1294.21zM871.32 -25.79L912.89 -1.79L912.89 46.21L871.32 70.21L829.75 46.21L829.75 -1.79zM912.89 46.21L954.46 70.21L954.46 118.21L912.89 142.21L871.32 118.21L871.32 70.21zM871.32 262.21L912.89 286.21L912.89 334.21L871.32 358.21L829.75 334.21L829.75 286.21zM912.89 334.21L954.46 358.21L954.46 406.21L912.89 430.21L871.32 406.21L871.32 358.21zM871.32 838.21L912.89 862.21L912.89 910.21L871.32 934.21L829.75 910.21L829.75 862.21zM871.32 982.21L912.89 1006.21L912.89 1054.21L871.32 1078.21L829.75 1054.21L829.75 1006.21zM912.89 1342.21L954.46 1366.21L954.46 1414.21L912.89 1438.21L871.32 1414.21L871.32 1366.21zM871.32 1414.21L912.89 1438.21L912.89 1486.21L871.32 1510.21L829.75 1486.21L829.75 1438.21zM954.46 262.21L996.03 286.21L996.03 334.21L954.46 358.21L912.89 334.21L912.89 286.21zM954.46 406.21L996.03 430.21L996.03 478.21L954.46 502.21L912.89 478.21L912.89 430.21zM996.03 622.21L1037.6 646.21L1037.6 694.21L996.03 718.21L954.46 694.21L954.46 646.21zM996.03 766.21L1037.6 790.21L1037.6 838.21L996.03 862.21L954.46 838.21L954.46 790.21zM954.46 838.21L996.03 862.21L996.03 910.21L954.46 934.21L912.89 910.21L912.89 862.21zM996.03 910.21L1037.6 934.21L1037.6 982.21L996.03 1006.21L954.46 982.21L954.46 934.21zM954.46 1126.21L996.03 1150.21L996.03 1198.21L954.46 1222.21L912.89 1198.21L912.89 1150.21zM996.03 1342.21L1037.6 1366.21L1037.6 1414.21L996.03 1438.21L954.46 1414.21L954.46 1366.21zM954.46 1414.21L996.03 1438.21L996.03 1486.21L954.46 1510.21L912.89 1486.21L912.89 1438.21zM1079.17 46.21L1120.74 70.21L1120.74 118.21L1079.17 142.21L1037.6 118.21L1037.6 70.21zM1037.6 118.21L1079.17 142.21L1079.17 190.21L1037.6 214.21L996.03 190.21L996.03 142.21zM1037.6 406.21L1079.17 430.21L1079.17 478.21L1037.6 502.21L996.03 478.21L996.03 430.21zM1079.17 478.21L1120.74 502.21L1120.74 550.21L1079.17 574.21L1037.6 550.21L1037.6 502.21zM1037.6 550.21L1079.17 574.21L1079.17 622.21L1037.6 646.21L996.03 622.21L996.03 574.21zM1079.17 622.21L1120.74 646.21L1120.74 694.21L1079.17 718.21L1037.6 694.21L1037.6 646.21zM1079.17 766.21L1120.74 790.21L1120.74 838.21L1079.17 862.21L1037.6 838.21L1037.6 790.21zM1079.17 1054.21L1120.74 1078.21L1120.74 1126.21L1079.17 1150.21L1037.6 1126.21L1037.6 1078.21zM1037.6 1126.21L1079.17 1150.21L1079.17 1198.21L1037.6 1222.21L996.03 1198.21L996.03 1150.21zM1037.6 1270.21L1079.17 1294.21L1079.17 1342.21L1037.6 1366.21L996.03 1342.21L996.03 1294.21zM1079.17 1342.21L1120.74 1366.21L1120.74 1414.21L1079.17 1438.21L1037.6 1414.21L1037.6 1366.21zM1037.6 1414.21L1079.17 1438.21L1079.17 1486.21L1037.6 1510.21L996.03 1486.21L996.03 1438.21zM1120.74 -25.79L1162.31 -1.79L1162.31 46.21L1120.74 70.21L1079.17 46.21L1079.17 -1.79zM1120.74 118.21L1162.31 142.21L1162.31 190.21L1120.74 214.21L1079.17 190.21L1079.17 142.21zM1162.31 190.21L1203.88 214.21L1203.88 262.21L1162.31 286.21L1120.74 262.21L1120.74 214.21zM1120.74 406.21L1162.31 430.21L1162.31 478.21L1120.74 502.21L1079.17 478.21L1079.17 430.21zM1162.31 622.21L1203.88 646.21L1203.88 694.21L1162.31 718.21L1120.74 694.21L1120.74 646.21zM1120.74 838.21L1162.31 862.21L1162.31 910.21L1120.74 934.21L1079.17 910.21L1079.17 862.21zM1120.74 982.21L1162.31 1006.21L1162.31 1054.21L1120.74 1078.21L1079.17 1054.21L1079.17 1006.21zM1162.31 1054.21L1203.88 1078.21L1203.88 1126.21L1162.31 1150.21L1120.74 1126.21L1120.74 1078.21zM1162.31 1198.21L1203.88 1222.21L1203.88 1270.21L1162.31 1294.21L1120.74 1270.21L1120.74 1222.21zM1203.88 -25.79L1245.45 -1.79L1245.45 46.21L1203.88 70.21L1162.31 46.21L1162.31 -1.79zM1203.88 406.21L1245.45 430.21L1245.45 478.21L1203.88 502.21L1162.31 478.21L1162.31 430.21zM1245.45 478.21L1287.02 502.21L1287.02 550.21L1245.45 574.21L1203.88 550.21L1203.88 502.21zM1245.45 622.21L1287.02 646.21L1287.02 694.21L1245.45 718.21L1203.88 694.21L1203.88 646.21zM1203.88 694.21L1245.45 718.21L1245.45 766.21L1203.88 790.21L1162.31 766.21L1162.31 718.21zM1245.45 766.21L1287.02 790.21L1287.02 838.21L1245.45 862.21L1203.88 838.21L1203.88 790.21zM1203.88 838.21L1245.45 862.21L1245.45 910.21L1203.88 934.21L1162.31 910.21L1162.31 862.21zM1245.45 910.21L1287.02 934.21L1287.02 982.21L1245.45 1006.21L1203.88 982.21L1203.88 934.21zM1245.45 1054.21L1287.02 1078.21L1287.02 1126.21L1245.45 1150.21L1203.88 1126.21L1203.88 1078.21zM1203.88 1270.21L1245.45 1294.21L1245.45 1342.21L1203.88 1366.21L1162.31 1342.21L1162.31 1294.21zM1203.88 1414.21L1245.45 1438.21L1245.45 1486.21L1203.88 1510.21L1162.31 1486.21L1162.31 1438.21zM1287.02 118.21L1328.59 142.21L1328.59 190.21L1287.02 214.21L1245.45 190.21L1245.45 142.21zM1287.02 262.21L1328.59 286.21L1328.59 334.21L1287.02 358.21L1245.45 334.21L1245.45 286.21zM1328.59 478.21L1370.16 502.21L1370.16 550.21L1328.59 574.21L1287.02 550.21L1287.02 502.21zM1287.02 694.21L1328.59 718.21L1328.59 766.21L1287.02 790.21L1245.45 766.21L1245.45 718.21zM1328.59 766.21L1370.16 790.21L1370.16 838.21L1328.59 862.21L1287.02 838.21L1287.02 790.21zM1287.02 1126.21L1328.59 1150.21L1328.59 1198.21L1287.02 1222.21L1245.45 1198.21L1245.45 1150.21zM1287.02 1270.21L1328.59 1294.21L1328.59 1342.21L1287.02 1366.21L1245.45 1342.21L1245.45 1294.21zM1370.16 -25.79L1411.73 -1.79L1411.73 46.21L1370.16 70.21L1328.59 46.21L1328.59 -1.79zM1411.73 46.21L1453.3 70.21L1453.3 118.21L1411.73 142.21L1370.16 118.21L1370.16 70.21zM1411.73 190.21L1453.3 214.21L1453.3 262.21L1411.73 286.21L1370.16 262.21L1370.16 214.21zM1411.73 334.21L1453.3 358.21L1453.3 406.21L1411.73 430.21L1370.16 406.21L1370.16 358.21zM1411.73 766.21L1453.3 790.21L1453.3 838.21L1411.73 862.21L1370.16 838.21L1370.16 790.21zM1411.73 910.21L1453.3 934.21L1453.3 982.21L1411.73 1006.21L1370.16 982.21L1370.16 934.21zM1411.73 1054.21L1453.3 1078.21L1453.3 1126.21L1411.73 1150.21L1370.16 1126.21L1370.16 1078.21zM1411.73 1198.21L1453.3 1222.21L1453.3 1270.21L1411.73 1294.21L1370.16 1270.21L1370.16 1222.21zM1411.73 1342.21L1453.3 1366.21L1453.3 1414.21L1411.73 1438.21L1370.16 1414.21L1370.16 1366.21zM1494.87 190.21L1536.44 214.21L1536.44 262.21L1494.87 286.21L1453.3 262.21L1453.3 214.21zM1494.87 334.21L1536.44 358.21L1536.44 406.21L1494.87 430.21L1453.3 406.21L1453.3 358.21zM1453.3 406.21L1494.87 430.21L1494.87 478.21L1453.3 502.21L1411.73 478.21L1411.73 430.21zM1494.87 478.21L1536.44 502.21L1536.44 550.21L1494.87 574.21L1453.3 550.21L1453.3 502.21zM1494.87 766.21L1536.44 790.21L1536.44 838.21L1494.87 862.21L1453.3 838.21L1453.3 790.21zM1453.3 838.21L1494.87 862.21L1494.87 910.21L1453.3 934.21L1411.73 910.21L1411.73 862.21zM1494.87 910.21L1536.44 934.21L1536.44 982.21L1494.87 1006.21L1453.3 982.21L1453.3 934.21zM1494.87 1054.21L1536.44 1078.21L1536.44 1126.21L1494.87 1150.21L1453.3 1126.21L1453.3 1078.21zM1453.3 1270.21L1494.87 1294.21L1494.87 1342.21L1453.3 1366.21L1411.73 1342.21L1411.73 1294.21zM1536.44 118.21L1578.01 142.21L1578.01 190.21L1536.44 214.21L1494.87 190.21L1494.87 142.21zM1578.01 766.21L1619.59 790.21L1619.59 838.21L1578.01 862.21L1536.44 838.21L1536.44 790.21zM1536.44 1126.21L1578.01 1150.21L1578.01 1198.21L1536.44 1222.21L1494.87 1198.21L1494.87 1150.21zM1578.01 1198.21L1619.59 1222.21L1619.59 1270.21L1578.01 1294.21L1536.44 1270.21L1536.44 1222.21zM1578.01 1342.21L1619.59 1366.21L1619.59 1414.21L1578.01 1438.21L1536.44 1414.21L1536.44 1366.21zM1536.44 1414.21L1578.01 1438.21L1578.01 1486.21L1536.44 1510.21L1494.87 1486.21L1494.87 1438.21zM1619.59 -25.79L1661.16 -1.79L1661.16 46.21L1619.59 70.21L1578.01 46.21L1578.01 -1.79zM1661.16 46.21L1702.73 70.21L1702.73 118.21L1661.16 142.21L1619.59 118.21L1619.59 70.21zM1619.59 838.21L1661.16 862.21L1661.16 910.21L1619.59 934.21L1578.01 910.21L1578.01 862.21zM1619.59 982.21L1661.16 1006.21L1661.16 1054.21L1619.59 1078.21L1578.01 1054.21L1578.01 1006.21zM1661.16 1054.21L1702.73 1078.21L1702.73 1126.21L1661.16 1150.21L1619.59 1126.21L1619.59 1078.21zM1661.16 1342.21L1702.73 1366.21L1702.73 1414.21L1661.16 1438.21L1619.59 1414.21L1619.59 1366.21zM1619.59 1414.21L1661.16 1438.21L1661.16 1486.21L1619.59 1510.21L1578.01 1486.21L1578.01 1438.21zM1744.3 190.21L1785.87 214.21L1785.87 262.21L1744.3 286.21L1702.73 262.21L1702.73 214.21zM1702.73 262.21L1744.3 286.21L1744.3 334.21L1702.73 358.21L1661.16 334.21L1661.16 286.21zM1702.73 550.21L1744.3 574.21L1744.3 622.21L1702.73 646.21L1661.16 622.21L1661.16 574.21zM1744.3 622.21L1785.87 646.21L1785.87 694.21L1744.3 718.21L1702.73 694.21L1702.73 646.21zM1702.73 694.21L1744.3 718.21L1744.3 766.21L1702.73 790.21L1661.16 766.21L1661.16 718.21zM1702.73 982.21L1744.3 1006.21L1744.3 1054.21L1702.73 1078.21L1661.16 1054.21L1661.16 1006.21zM1744.3 1054.21L1785.87 1078.21L1785.87 1126.21L1744.3 1150.21L1702.73 1126.21L1702.73 1078.21zM1702.73 1126.21L1744.3 1150.21L1744.3 1198.21L1702.73 1222.21L1661.16 1198.21L1661.16 1150.21zM1744.3 1198.21L1785.87 1222.21L1785.87 1270.21L1744.3 1294.21L1702.73 1270.21L1702.73 1222.21zM1744.3 1342.21L1785.87 1366.21L1785.87 1414.21L1744.3 1438.21L1702.73 1414.21L1702.73 1366.21zM1702.73 1414.21L1744.3 1438.21L1744.3 1486.21L1702.73 1510.21L1661.16 1486.21L1661.16 1438.21zM1785.87 -25.79L1827.44 -1.79L1827.44 46.21L1785.87 70.21L1744.3 46.21L1744.3 -1.79zM1827.44 190.21L1869.01 214.21L1869.01 262.21L1827.44 286.21L1785.87 262.21L1785.87 214.21zM1785.87 550.21L1827.44 574.21L1827.44 622.21L1785.87 646.21L1744.3 622.21L1744.3 574.21zM1827.44 622.21L1869.01 646.21L1869.01 694.21L1827.44 718.21L1785.87 694.21L1785.87 646.21zM1827.44 766.21L1869.01 790.21L1869.01 838.21L1827.44 862.21L1785.87 838.21L1785.87 790.21zM1785.87 838.21L1827.44 862.21L1827.44 910.21L1785.87 934.21L1744.3 910.21L1744.3 862.21zM1827.44 910.21L1869.01 934.21L1869.01 982.21L1827.44 1006.21L1785.87 982.21L1785.87 934.21zM1827.44 1054.21L1869.01 1078.21L1869.01 1126.21L1827.44 1150.21L1785.87 1126.21L1785.87 1078.21zM1827.44 1198.21L1869.01 1222.21L1869.01 1270.21L1827.44 1294.21L1785.87 1270.21L1785.87 1222.21zM1785.87 1414.21L1827.44 1438.21L1827.44 1486.21L1785.87 1510.21L1744.3 1486.21L1744.3 1438.21zM1869.01 -25.79L1910.58 -1.79L1910.58 46.21L1869.01 70.21L1827.44 46.21L1827.44 -1.79zM1910.58 334.21L1952.15 358.21L1952.15 406.21L1910.58 430.21L1869.01 406.21L1869.01 358.21zM1869.01 550.21L1910.58 574.21L1910.58 622.21L1869.01 646.21L1827.44 622.21L1827.44 574.21zM1910.58 1198.21L1952.15 1222.21L1952.15 1270.21L1910.58 1294.21L1869.01 1270.21L1869.01 1222.21zM1869.01 1270.21L1910.58 1294.21L1910.58 1342.21L1869.01 1366.21L1827.44 1342.21L1827.44 1294.21zM1910.58 1342.21L1952.15 1366.21L1952.15 1414.21L1910.58 1438.21L1869.01 1414.21L1869.01 1366.21zM1869.01 1414.21L1910.58 1438.21L1910.58 1486.21L1869.01 1510.21L1827.44 1486.21L1827.44 1438.21zM1993.72 46.21L2035.29 70.21L2035.29 118.21L1993.72 142.21L1952.15 118.21L1952.15 70.21zM1993.72 190.21L2035.29 214.21L2035.29 262.21L1993.72 286.21L1952.15 262.21L1952.15 214.21zM1952.15 262.21L1993.72 286.21L1993.72 334.21L1952.15 358.21L1910.58 334.21L1910.58 286.21zM1993.72 334.21L2035.29 358.21L2035.29 406.21L1993.72 430.21L1952.15 406.21L1952.15 358.21zM1952.15 550.21L1993.72 574.21L1993.72 622.21L1952.15 646.21L1910.58 622.21L1910.58 574.21zM1993.72 622.21L2035.29 646.21L2035.29 694.21L1993.72 718.21L1952.15 694.21L1952.15 646.21zM1952.15 694.21L1993.72 718.21L1993.72 766.21L1952.15 790.21L1910.58 766.21L1910.58 718.21zM1993.72 766.21L2035.29 790.21L2035.29 838.21L1993.72 862.21L1952.15 838.21L1952.15 790.21zM1952.15 1270.21L1993.72 1294.21L1993.72 1342.21L1952.15 1366.21L1910.58 1342.21L1910.58 1294.21zM1993.72 1342.21L2035.29 1366.21L2035.29 1414.21L1993.72 1438.21L1952.15 1414.21L1952.15 1366.21zM2076.86 190.21L2118.43 214.21L2118.43 262.21L2076.86 286.21L2035.29 262.21L2035.29 214.21zM2076.86 334.21L2118.43 358.21L2118.43 406.21L2076.86 430.21L2035.29 406.21L2035.29 358.21zM2035.29 694.21L2076.86 718.21L2076.86 766.21L2035.29 790.21L1993.72 766.21L1993.72 718.21zM2076.86 766.21L2118.43 790.21L2118.43 838.21L2076.86 862.21L2035.29 838.21L2035.29 790.21zM2035.29 838.21L2076.86 862.21L2076.86 910.21L2035.29 934.21L1993.72 910.21L1993.72 862.21zM2076.86 910.21L2118.43 934.21L2118.43 982.21L2076.86 1006.21L2035.29 982.21L2035.29 934.21zM2035.29 982.21L2076.86 1006.21L2076.86 1054.21L2035.29 1078.21L1993.72 1054.21L1993.72 1006.21zM2035.29 1270.21L2076.86 1294.21L2076.86 1342.21L2035.29 1366.21L1993.72 1342.21L1993.72 1294.21zM2160 46.21L2201.57 70.21L2201.57 118.21L2160 142.21L2118.43 118.21L2118.43 70.21zM2118.43 118.21L2160 142.21L2160 190.21L2118.43 214.21L2076.86 190.21L2076.86 142.21zM2160 190.21L2201.57 214.21L2201.57 262.21L2160 286.21L2118.43 262.21L2118.43 214.21zM2118.43 406.21L2160 430.21L2160 478.21L2118.43 502.21L2076.86 478.21L2076.86 430.21zM2118.43 550.21L2160 574.21L2160 622.21L2118.43 646.21L2076.86 622.21L2076.86 574.21zM2118.43 694.21L2160 718.21L2160 766.21L2118.43 790.21L2076.86 766.21L2076.86 718.21zM2160 1054.21L2201.57 1078.21L2201.57 1126.21L2160 1150.21L2118.43 1126.21L2118.43 1078.21zM2118.43 1270.21L2160 1294.21L2160 1342.21L2118.43 1366.21L2076.86 1342.21L2076.86 1294.21zM2160 1342.21L2201.57 1366.21L2201.57 1414.21L2160 1438.21L2118.43 1414.21L2118.43 1366.21zM2243.14 46.21L2284.71 70.21L2284.71 118.21L2243.14 142.21L2201.57 118.21L2201.57 70.21zM2201.57 262.21L2243.14 286.21L2243.14 334.21L2201.57 358.21L2160 334.21L2160 286.21zM2201.57 406.21L2243.14 430.21L2243.14 478.21L2201.57 502.21L2160 478.21L2160 430.21zM2201.57 550.21L2243.14 574.21L2243.14 622.21L2201.57 646.21L2160 622.21L2160 574.21zM2201.57 694.21L2243.14 718.21L2243.14 766.21L2201.57 790.21L2160 766.21L2160 718.21zM2201.57 838.21L2243.14 862.21L2243.14 910.21L2201.57 934.21L2160 910.21L2160 862.21zM2243.14 910.21L2284.71 934.21L2284.71 982.21L2243.14 1006.21L2201.57 982.21L2201.57 934.21zM2201.57 982.21L2243.14 1006.21L2243.14 1054.21L2201.57 1078.21L2160 1054.21L2160 1006.21zM2326.28 46.21L2367.85 70.21L2367.85 118.21L2326.28 142.21L2284.71 118.21L2284.71 70.21zM2326.28 190.21L2367.85 214.21L2367.85 262.21L2326.28 286.21L2284.71 262.21L2284.71 214.21zM2284.71 262.21L2326.28 286.21L2326.28 334.21L2284.71 358.21L2243.14 334.21L2243.14 286.21zM2284.71 550.21L2326.28 574.21L2326.28 622.21L2284.71 646.21L2243.14 622.21L2243.14 574.21zM2326.28 766.21L2367.85 790.21L2367.85 838.21L2326.28 862.21L2284.71 838.21L2284.71 790.21zM2284.71 838.21L2326.28 862.21L2326.28 910.21L2284.71 934.21L2243.14 910.21L2243.14 862.21zM2326.28 910.21L2367.85 934.21L2367.85 982.21L2326.28 1006.21L2284.71 982.21L2284.71 934.21zM2284.71 982.21L2326.28 1006.21L2326.28 1054.21L2284.71 1078.21L2243.14 1054.21L2243.14 1006.21zM2284.71 1126.21L2326.28 1150.21L2326.28 1198.21L2284.71 1222.21L2243.14 1198.21L2243.14 1150.21zM2326.28 1342.21L2367.85 1366.21L2367.85 1414.21L2326.28 1438.21L2284.71 1414.21L2284.71 1366.21zM2284.71 1414.21L2326.28 1438.21L2326.28 1486.21L2284.71 1510.21L2243.14 1486.21L2243.14 1438.21zM2409.42 190.21L2450.99 214.21L2450.99 262.21L2409.42 286.21L2367.85 262.21L2367.85 214.21zM2367.85 406.21L2409.42 430.21L2409.42 478.21L2367.85 502.21L2326.28 478.21L2326.28 430.21zM2409.42 478.21L2450.99 502.21L2450.99 550.21L2409.42 574.21L2367.85 550.21L2367.85 502.21zM2367.85 550.21L2409.42 574.21L2409.42 622.21L2367.85 646.21L2326.28 622.21L2326.28 574.21zM2409.42 622.21L2450.99 646.21L2450.99 694.21L2409.42 718.21L2367.85 694.21L2367.85 646.21zM2367.85 838.21L2409.42 862.21L2409.42 910.21L2367.85 934.21L2326.28 910.21L2326.28 862.21zM2409.42 910.21L2450.99 934.21L2450.99 982.21L2409.42 1006.21L2367.85 982.21L2367.85 934.21zM2409.42 1054.21L2450.99 1078.21L2450.99 1126.21L2409.42 1150.21L2367.85 1126.21L2367.85 1078.21zM2367.85 1270.21L2409.42 1294.21L2409.42 1342.21L2367.85 1366.21L2326.28 1342.21L2326.28 1294.21zM2367.85 1414.21L2409.42 1438.21L2409.42 1486.21L2367.85 1510.21L2326.28 1486.21L2326.28 1438.21zM2492.56 46.21L2534.13 70.21L2534.13 118.21L2492.56 142.21L2450.99 118.21L2450.99 70.21zM2450.99 118.21L2492.56 142.21L2492.56 190.21L2450.99 214.21L2409.42 190.21L2409.42 142.21zM2492.56 334.21L2534.13 358.21L2534.13 406.21L2492.56 430.21L2450.99 406.21L2450.99 358.21zM2492.56 478.21L2534.13 502.21L2534.13 550.21L2492.56 574.21L2450.99 550.21L2450.99 502.21zM2492.56 622.21L2534.13 646.21L2534.13 694.21L2492.56 718.21L2450.99 694.21L2450.99 646.21zM2492.56 766.21L2534.13 790.21L2534.13 838.21L2492.56 862.21L2450.99 838.21L2450.99 790.21zM2450.99 838.21L2492.56 862.21L2492.56 910.21L2450.99 934.21L2409.42 910.21L2409.42 862.21zM2450.99 982.21L2492.56 1006.21L2492.56 1054.21L2450.99 1078.21L2409.42 1054.21L2409.42 1006.21zM2450.99 1126.21L2492.56 1150.21L2492.56 1198.21L2450.99 1222.21L2409.42 1198.21L2409.42 1150.21zM2450.99 1270.21L2492.56 1294.21L2492.56 1342.21L2450.99 1366.21L2409.42 1342.21L2409.42 1294.21zM2492.56 1342.21L2534.13 1366.21L2534.13 1414.21L2492.56 1438.21L2450.99 1414.21L2450.99 1366.21zM2534.13 -25.79L2575.7 -1.79L2575.7 46.21L2534.13 70.21L2492.56 46.21L2492.56 -1.79zM2575.7 190.21L2617.27 214.21L2617.27 262.21L2575.7 286.21L2534.13 262.21L2534.13 214.21zM2575.7 334.21L2617.27 358.21L2617.27 406.21L2575.7 430.21L2534.13 406.21L2534.13 358.21zM2534.13 406.21L2575.7 430.21L2575.7 478.21L2534.13 502.21L2492.56 478.21L2492.56 430.21zM2534.13 694.21L2575.7 718.21L2575.7 766.21L2534.13 790.21L2492.56 766.21L2492.56 718.21zM2575.7 766.21L2617.27 790.21L2617.27 838.21L2575.7 862.21L2534.13 838.21L2534.13 790.21zM2534.13 1126.21L2575.7 1150.21L2575.7 1198.21L2534.13 1222.21L2492.56 1198.21L2492.56 1150.21zM2575.7 1342.21L2617.27 1366.21L2617.27 1414.21L2575.7 1438.21L2534.13 1414.21L2534.13 1366.21z" stroke="rgba(97, 97, 97, 0.93)" stroke-width="2"></path></g><defs><mask id="SvgjsMask1076"><rect width="2560" height="1440" fill="#ffffff"></rect></mask></defs></svg>